<svg xmlns="http://www.w3.org/2000/svg" version="1.1" xmlns:xlink="http://www.w3.org/1999/xlink" xmlns:svgjs="http://svgjs.dev/svgjs" width="1000" height="1125" viewBox="0 0 1000 1125"><g transform="matrix(1,0,0,1,0,0)"><svg viewBox="0 0 320 360" data-background-color="#ffffff" preserveAspectRatio="xMidYMid meet" height="1125" width="1000" xmlns="http://www.w3.org/2000/svg" xmlns:xlink="http://www.w3.org/1999/xlink"><g id="tight-bounds" transform="matrix(1,0,0,1,0,0)"><svg viewBox="0 0 320 360" height="360" width="320"><g><svg></svg></g><g><svg viewBox="0 0 320 360" height="360" width="320"><g><path xmlns="http://www.w3.org/2000/svg" d="M219.58 41.008c0.707 0 6.365 2.829 9.547 3.89-1.061 0.354-3.536-0.707-6.365-1.768 0.707 0 2.122 0.354 3.536 1.06-0.707-0.707-6.011-2.475-6.718-3.182M166.895 30.047c1.061-0.354 13.436 1.414 19.094 1.768 0.354-0.354-0.707-0.354-2.122-0.707 1.768-0.354 5.304 0.707 7.779 1.06-7.425 0.354-15.558-1.768-22.629-1.06-2.475 0-0.707-0.707-2.122-1.061M156.641 30.047c6.365 0 11.315 0 2.121 0.707-1.061-0.354-2.475-0.354-2.121-0.707M256.707 59.395c0.707 0 3.536 3.182 4.95 4.243-0.354 0.354-3.182-2.475-4.596-3.536 0.354 0.354 0 0-0.354-0.707M249.635 54.798c-2.829-2.475-3.889-2.475-4.243-3.889 2.475 1.414 4.243 2.829 4.243 3.889M204.022 32.522c0.354-0.354 1.061 0.354 2.829 0.707-2.122-0.354-1.768 0-1.061 0.707-2.475-0.354-3.182-0.707-2.475-1.414 1.414 0.707 1.768 0.354 0.707 0M103.602 36.765c0-0.354 1.414-1.061 2.475-1.414-1.061 0.707-0.707 1.061 1.061 0.353 0 0.354-2.122 1.061-3.536 1.768 0.707-0.354 1.414-1.414 0-0.707M211.094 28.986c-1.061 0.354-4.95-1.768-8.84-2.475-2.122-0.707 8.486 1.768 8.84 2.475M2.475 203.66c2.122 8.84 0.707 8.486 0 0M2.829 150.621c0.354-1.414 0.707-5.304 1.06-4.95-1.061 8.486-2.829 12.376-3.182 18.74 1.061-5.657-0.354 3.182-0.707 5.304 0.354 2.829 0.354-1.768 1.061-1.06 0.707 1.061-1.414 15.912-0.707 7.779-0.707 7.425 0 15.558 1.414 17.679-1.768 11.315 7.072 36.773 8.84 42.077 0.354 0.354 0-1.768 0.707-0.353 0.707 4.597 3.889 7.779 4.95 12.729 1.061 1.414 5.304 9.193 6.011 10.962 1.414 2.829 2.122 2.475 3.536 5.303 4.243 8.133 10.961 15.912 17.326 23.337 20.508 24.044 51.978 43.845 86.984 50.918 35.006 7.425 71.779 2.122 100.419-11.669 1.768-1.061 1.414-1.414 3.536-2.122 9.901-3.182 21.923-13.436 28.641-17.326 3.182-3.536 11.669-9.547 12.73-13.082 6.011-4.95 12.022-13.083 15.204-18.387 1.768-2.829 3.182-2.829 3.889-4.597-0.354 0 5.657-7.425 7.426-11.668-0.707 0-1.768 2.122-1.768 0 12.729-24.398 19.801-57.282 15.911-79.912 0.707 27.934-6.365 59.05-19.801 78.851-6.011 12.729-18.387 26.519-29.701 36.42-1.768 1.768-3.536 3.889-5.658 5.304-6.718 5.657-14.144 10.254-21.922 14.497-18.387 10.254-38.895 19.094-62.94 19.447 41.37-3.536 78.497-24.398 99.006-49.856-15.558 15.204-22.276 21.215-39.602 30.055-1.414 2.475-13.083 7.425-20.862 9.547 4.597-2.122 14.144-5.657 17.326-8.486-25.812 12.376-54.453 19.448-81.326 15.558 10.254 0 24.751 0.354 38.541-2.121 2.122-0.707 3.182-1.414 5.658-1.768 26.873-6.011 52.685-19.094 71.072-37.481-10.608 9.547-26.519 20.862-36.774 24.398 9.547-5.304 26.873-15.558 32.53-23.337-11.315 11.315-32.53 22.63-45.966 27.58-2.122 0.354 1.414-1.414-2.122 0-4.243 1.061-2.475 1.061-3.536 1.768-16.265 4.597-35.006 8.486-50.563 7.072-2.829-0.354-3.889-1.061-6.365-1.061-2.829-0.354-5.304-0.354-8.486-0.354-12.376-1.414-25.812-6.365-35.713-10.607-5.304-2.475-10.608-4.243-15.912-7.426-4.243-2.475-7.779-5.304-11.314-8.132-13.436-9.901-24.751-19.801-35.36-33.945-19.094-26.519-28.994-59.757-27.58-92.641 1.414-32.884 14.497-65.061 35.359-88.752-1.061 1.061 1.414-2.475 3.536-4.596 0 0.707-0.354 1.768 2.122-0.707 2.122-2.475-0.707-0.707 0.353-2.122 21.923-24.044 60.111-43.492 99.36-44.199 1.414-1.061 3.889-2.475 6.718-1.768 0 0.354-1.768 0.354-1.768 0.354 3.889-0.354 7.425-0.354 9.193 0.353 0.354-0.354-1.414-0.707 0-0.707 2.475 0.707 3.182 0 4.597 0.707-1.061 0-2.122 0-2.829 0.354 8.84 0 14.497 2.122 23.337 2.829-4.597-1.061-5.657-1.061-9.193-2.122 3.889 0.707 5.657 1.414 7.425 1.061-0.707 0-0.354-1.061 0.354-0.707 7.072 1.768 7.779 2.475 15.204 4.95 0.707-0.707-3.182-1.061-4.243-2.122 7.072 2.475 13.436 4.243 17.68 7.072-1.414-1.061-5.657-2.475-8.84-3.889-0.354 0.354 1.061 0.707 1.414 1.414-3.536-1.768-8.486-3.536-13.436-4.243 4.243 1.061 7.072 2.475 8.84 3.182-3.889-0.707-8.84-3.182-14.498-4.243 9.193 2.829 26.519 9.193 37.127 14.851-3.889-2.475-8.486-4.243-10.961-5.657 2.122 0.354 4.597 1.768 4.597 1.06 2.475 1.061 5.657 3.536 7.425 3.89-3.182-2.122-9.547-5.304-11.668-6.365 26.519 12.022 50.21 32.177 65.414 57.989 1.414 2.475 3.536 8.133 5.304 8.84-0.354-1.768-1.768-2.829-3.182-5.657 0.707 0 0.707-1.061 0-2.122-1.414-1.768 0 1.414-1.415-0.354-6.365-11.669-14.144-21.923-26.165-33.237 6.718 6.365 1.768 1.768 0.353-0.354 9.193 8.133 19.801 21.923 24.398 28.995-0.707-1.061-1.061-1.768-0.707-1.768 8.486 14.497 13.79 27.58 19.094 46.32 0.354 0.354 0-1.414 0.707-0.353 3.536 14.851 4.597 27.227 4.243 38.541 2.829-19.094-3.536-48.796-14.851-72.133-1.414-2.829-1.414-0.707-2.829-3.889 0-1.061-1.061-3.182-1.768-4.597-14.144-23.337-31.47-39.956-51.978-53.038 1.414 0.707 4.243 2.829 4.244 2.475-38.188-25.105-82.387-28.641-118.807-20.862-2.475 1.061-3.536 2.122-6.365 3.536 5.304-1.768 8.486-2.122 13.437-3.183 1.061-1.061-4.597 0.354-2.122-0.707 0.354 0.354 4.95-0.707 6.011-0.353 0 0.354-1.414 0.707-1.768 1.06 11.669-2.475 23.691-2.829 33.945-2.121-6.011 0.354-16.972-0.707-20.508 1.061 3.536-0.354 8.486-0.707 11.668-0.354-4.243 0-12.022 0.354-15.558 0.707-0.354-0.354 5.657-1.061 1.768-1.06-1.768 0.354-4.597 0.354-5.657 1.414-30.409 2.829-60.111 18.74-80.973 37.481-4.243 3.536-9.193 7.425-12.375 11.314-7.779 8.84-12.729 17.68-18.387 25.459 3.536-7.425 11.315-18.74 20.508-28.287 9.193-9.547 19.094-17.68 24.398-21.923 0 1.414 8.486-5.304 11.669-7.425-2.122 1.768 1.414-0.707 2.121-0.354 11.315-6.718 20.508-9.193 30.763-13.083-2.475 0.707-4.597 1.414-4.951 1.061 2.475-0.707 3.889-1.414 3.536-1.768-9.901 2.829-25.459 9.547-37.834 16.972 22.276-15.204 50.564-24.398 78.497-24.751 27.934-0.707 55.16 6.365 76.729 17.68 14.497 6.365 28.287 18.033 39.249 29.348 3.182 2.829 0.707-0.707 5.304 4.243-1.414-0.707-2.475-1.414-0.707 0.707 2.829 3.182-0.707-2.475 3.889 3.182-0.354 0-1.768-1.768-1.768-1.061 12.376 10.961 21.923 30.762 27.58 43.846-1.414-5.304-4.95-12.729-7.779-18.033 8.486 15.558 11.315 24.751 14.851 38.541 1.414 1.061-0.707-4.95 0.707-2.121 0.354 2.122 0.707 8.84 2.122 9.9-1.061-6.718-2.829-14.851-4.243-16.265 1.061 0.707-1.768-8.133-3.536-10.254-0.707-5.657-5.657-15.558-9.901-22.984-15.204-29.702-42.431-54.099-72.839-67.536 0-0.707-1.768-1.414-2.476-2.121-30.055-12.729-66.122-16.265-100.773-8.133-35.006 8.486-67.889 28.641-91.227 57.636 1.061-3.536 9.901-10.254 10.255-13.083-10.254 10.961-21.215 25.459-28.641 41.016-7.779 15.558-12.022 31.47-13.79 43.138" fill="#e83d95" fill-rule="nonzero" stroke="none" stroke-width="1" stroke-linecap="butt" stroke-linejoin="miter" stroke-miterlimit="10" stroke-dasharray="" stroke-dashoffset="0" font-family="none" font-weight="none" font-size="none" text-anchor="none" style="mix-blend-mode: normal" data-fill-palette-color="tertiary"></path></g><g transform="matrix(1,0,0,1,63.94919470830348,90)"><svg viewBox="0 0 192.10161058339304 180" height="180" width="192.10161058339304"><g><svg viewBox="0 0 224 209.88892220920098" height="180" width="192.10161058339304"><g transform="matrix(1,0,0,1,0,154.4530921610188)"><svg viewBox="0 0 224 55.43583004818221" height="55.43583004818221" width="224"><g id="textblocktransform"><svg viewBox="0 0 224 55.43583004818221" height="55.43583004818221" width="224" id="textblock"><g><svg viewBox="0 0 224 55.43583004818221" height="55.43583004818221" width="224"><g transform="matrix(1,0,0,1,0,0)"><svg width="224" viewBox="-0.10000000149011612 -40.70000076293945 228.27999877929688 56.5" height="55.43583004818221" data-palette-color="#e83d95"><path d="M45-33.95L45-33.95Q45-35.7 43.4-37.25L43.4-37.25Q41.1-39.45 37.05-39.45L37.05-39.45Q33.5-39.45 29.2-37.9L29.2-37.9Q26.95-37.1 25.3-35.7L25.3-35.7Q22.75-33.5 22.75-31.3L22.75-31.3Q22.75-28.35 26.5-26L26.5-26Q27.9-25.15 32.13-23.23 36.35-21.3 38.3-20.1L38.3-20.1Q41.25-18.3 42.38-16.25 43.5-14.2 43.5-12.45L43.5-12.45Q43.5-9.95 41.85-7.35L41.85-7.35Q38.95-2.7 33.35 0.65L33.35 0.65Q26.9 4.55 17.8 4.55L17.8 4.55Q9.05 4.55 3.9 0.1L3.9 0.1Q-0.1-3.3-0.1-8.65L-0.1-8.65Q-0.1-12.05 2.38-16.15 4.85-20.25 8.45-21.95L8.45-21.95Q9.2-22.25 9.58-22.15 9.95-22.05 8.95-21.2L8.95-21.2Q6.8-19.5 5.5-17.45L5.5-17.45Q2.7-13.05 2.7-7.9L2.7-7.9Q2.7-4.5 4.6-1.95L4.6-1.95Q8 2.6 16.4 3.2L16.4 3.2Q17.35 3.3 19.23 3.3 21.1 3.3 24.33 2.63 27.55 1.95 30.55 0.4L30.55 0.4Q37-3 38.9-8.4L38.9-8.4Q39.5-10 39.5-11.5L39.5-11.5Q39.5-14.9 36.45-17.5L36.45-17.5Q34.8-18.8 29.73-20.98 24.65-23.15 22.9-24.3L22.9-24.3Q19.05-26.9 19.05-30.45L19.05-30.45Q19.05-33.55 22.5-36.5L22.5-36.5Q27.45-40.7 36.5-40.7L36.5-40.7Q40.75-40.7 43.43-39.43 46.1-38.15 46.7-35.6L46.7-35.6Q46.8-35.1 46.8-34.6L46.8-34.6Q46.8-32.65 45-31.1L45-31.1Q43.75-30.1 41.65-29.5L41.65-29.5Q40.75-29.25 40.65-29.7L40.65-29.7Q40.55-30.35 41.9-30.5L41.9-30.5Q44.3-30.8 44.85-32.9L44.85-32.9Q45-33.45 45-33.95ZM57-17.5L57-17.5Q60.65-17.5 60.65-12.9L60.65-12.9Q60.65-10.8 59.55-8.4L59.55-8.4Q58.15-5.15 55.35-2.5L55.35-2.5Q56-1.25 57.7-1.25L57.7-1.25Q59.05-1.25 60.25-2.6L60.25-2.6Q61.75-4.15 62.4-5.33 63.05-6.5 63.35-7.05 63.65-7.6 64.12-8.63 64.6-9.65 64.7-9.88 64.8-10.1 65.05-10.1L65.05-10.1Q65.55-10.15 65.55-9.75L65.55-9.75Q65.55-9.6 65.45-9.4L65.45-9.4 65.15-8.7Q64.85-8 64.7-7.7 64.55-7.4 64.17-6.63 63.8-5.85 63.52-5.4 63.25-4.95 62.77-4.2 62.3-3.45 61.92-3 61.55-2.55 61-2 60.45-1.45 59.95-1.15L59.95-1.15Q58.7-0.4 57.6-0.4L57.6-0.4Q55.55-0.4 54.4-1.7L54.4-1.7Q52.1 0 50.15 0L50.15 0Q46.5 0 46.5-4.6L46.5-4.6Q46.5-6.7 47.6-9.1L47.6-9.1Q49.1-12.6 51.82-15.05 54.55-17.5 57-17.5ZM57.55-15.95L57.55-15.95Q56.2-15.95 54.35-14.15 52.5-12.35 51.05-9.25L51.05-9.25Q49.3-5.65 49.3-3.35 49.3-1.05 51.05-1.05L51.05-1.05Q52.3-1.05 53.85-2.4L53.85-2.4Q53.05-3.55 53.05-4.85L53.05-4.85Q53.15-7 54.8-7L54.8-7Q55.45-7 55.87-6.55 56.3-6.1 56.3-5.73 56.3-5.35 56.2-4.95L56.2-4.95Q57.05-6.2 58.15-8.5L58.15-8.5Q59.4-11.05 59.4-13.5 59.4-15.95 57.55-15.95ZM62.9-2.9L62.9-2.9Q62.9-5.05 64.75-8.1L64.75-8.1Q63.95-8.1 64.3-8.9L64.3-8.9 65.2-10.65Q66.9-13.9 68-16.15L68-16.15Q68.5-17.2 69.95-17.2L69.95-17.2 73-17.2Q71.2-15.9 69.37-12.18 67.55-8.45 66.55-6.33 65.55-4.2 65.55-3.1 65.55-2 65.92-1.55 66.3-1.1 66.95-1.1L66.95-1.1Q67.9-1.1 69.6-3.1L69.6-3.1Q72.25-6.2 77.05-16.15L77.05-16.15Q77.6-17.2 79-17.2L79-17.2 81.7-17.2Q80.6-16.35 79.97-15.45 79.35-14.55 78.25-12.25L78.25-12.25Q75.25-6.25 74.9-4.3L74.9-4.3Q74.75-3.6 74.75-3L74.75-3Q74.75-1.4 75.85-1.3L75.85-1.3Q78.55-1.3 82.5-9.65L82.5-9.65Q82.8-10.35 83.1-10.2 83.4-10.05 83.4-9.8 83.4-9.55 82.95-8.65 82.5-7.75 82.07-6.9 81.65-6.05 80.77-4.58 79.9-3.1 79.15-2.25L79.15-2.25Q77.2-0.05 75.32-0.05 73.45-0.05 72.75-1.7L72.75-1.7Q72.45-2.45 72.45-3.6 72.45-4.75 72.95-6.45L72.95-6.45Q69.3-0.05 66.2-0.05L66.2-0.05Q63.5-0.05 63.05-2.3L63.05-2.3Q62.9-2.55 62.9-2.9ZM81.24-4L81.24-4Q81.24-8.15 85.24-17.9L85.24-17.9 82.64-17.9Q82.39-17.9 82.32-18.18 82.24-18.45 82.37-18.73 82.49-19 82.74-19L82.74-19 85.74-19Q87.54-22.95 89.09-25.6 90.64-28.25 91.94-29.18 93.24-30.1 93.82-30.1 94.39-30.1 94.64-30L94.64-30Q95.79-29.45 95.79-27.73 95.79-26 94.64-23.55 93.49-21.1 92.39-19L92.39-19 94.79-19Q95.04-19 95.12-18.73 95.19-18.45 95.07-18.18 94.94-17.9 94.69-17.9L94.69-17.9 91.79-17.9Q89.04-13.25 85.14-9.65L85.14-9.65 83.99-4.55Q83.84-3.9 83.84-3.28 83.84-2.65 84.19-2 84.54-1.35 85.29-1.35L85.29-1.35Q86.14-1.35 87.19-1.95L87.19-1.95Q89.59-3.75 92.49-9.5L92.49-9.5Q92.69-9.95 92.97-10.05 93.24-10.15 93.29-9.93 93.34-9.7 93.14-9.2L93.14-9.2Q91.49-5.75 90.54-4.3L90.54-4.3Q87.84 0.05 84.79 0.05L84.79 0.05Q83.24 0.05 82.24-1.1 81.24-2.25 81.24-4ZM88.79-19L91.29-19Q94.59-24.9 94.59-27.2L94.59-27.2Q94.59-28.2 94.24-28.2L94.24-28.2Q93.69-28.2 92.57-26.6 91.44-25 88.79-19L88.79-19ZM90.64-17.9L90.64-17.9 88.29-17.9Q87.69-16.5 85.59-11.25L85.59-11.25Q88.29-14.05 90.64-17.9ZM101.39-2.25L101.39-2.25Q101.39-0.85 102.39-0.85L102.39-0.85Q104.74-0.85 109.04-9.65L109.04-9.65Q109.39-10.35 109.67-10.2 109.94-10.05 109.94-9.8 109.94-9.55 109.37-8.38 108.79-7.2 108.22-6.13 107.64-5.05 106.54-3.3L106.54-3.3Q104.24 0.2 101.64 0.2L101.64 0.2Q99.94 0.2 98.94-1.2L98.94-1.2Q98.49-1.85 98.49-2.98 98.49-4.1 98.99-5.7 99.49-7.3 101.74-10.9L101.74-10.9Q102.29-11.8 102.29-12.33 102.29-12.85 101.44-12.85 100.59-12.85 98.19-10.6L98.19-10.6Q94.59-7.3 91.19-0.7L91.19-0.7Q90.84 0.05 89.34 0.05L89.34 0.05Q87.99 0.15 87.64 0.35L87.64 0.35Q97.14-19.4 101.39-27.2L101.39-27.2Q102.34-28.95 103.07-29.65 103.79-30.35 104.79-30.35L104.79-30.35Q105.04-30.35 105.84-30.23 106.64-30.1 107.04-30.15L107.04-30.15Q105.54-28.6 101.67-21.58 97.79-14.55 94.24-7.3L94.24-7.3Q96.59-10.25 98.47-11.9 100.34-13.55 103.04-15.03 105.74-16.5 106.99-16.5L106.99-16.5Q107.29-16.5 107.54-16.4L107.54-16.4Q101.39-5.6 101.39-2.25ZM164.19-33.95L164.19-33.95Q164.19-35.7 162.59-37.25L162.59-37.25Q160.29-39.45 156.24-39.45L156.24-39.45Q152.69-39.45 148.39-37.9L148.39-37.9Q146.14-37.1 144.49-35.7L144.49-35.7Q141.94-33.5 141.94-31.3L141.94-31.3Q141.94-28.35 145.69-26L145.69-26Q147.09-25.15 151.31-23.23 155.54-21.3 157.49-20.1L157.49-20.1Q160.44-18.3 161.56-16.25 162.69-14.2 162.69-12.45L162.69-12.45Q162.69-9.95 161.04-7.35L161.04-7.35Q158.14-2.7 152.54 0.65L152.54 0.65Q146.09 4.55 136.99 4.55L136.99 4.55Q128.24 4.55 123.09 0.1L123.09 0.1Q119.09-3.3 119.09-8.65L119.09-8.65Q119.09-12.05 121.56-16.15 124.04-20.25 127.64-21.95L127.64-21.95Q128.39-22.25 128.76-22.15 129.14-22.05 128.14-21.2L128.14-21.2Q125.99-19.5 124.69-17.45L124.69-17.45Q121.89-13.05 121.89-7.9L121.89-7.9Q121.89-4.5 123.79-1.95L123.79-1.95Q127.19 2.6 135.59 3.2L135.59 3.2Q136.54 3.3 138.41 3.3 140.29 3.3 143.51 2.63 146.74 1.95 149.74 0.4L149.74 0.4Q156.19-3 158.09-8.4L158.09-8.4Q158.69-10 158.69-11.5L158.69-11.5Q158.69-14.9 155.64-17.5L155.64-17.5Q153.99-18.8 148.91-20.98 143.84-23.15 142.09-24.3L142.09-24.3Q138.24-26.9 138.24-30.45L138.24-30.45Q138.24-33.55 141.69-36.5L141.69-36.5Q146.64-40.7 155.69-40.7L155.69-40.7Q159.94-40.7 162.61-39.43 165.29-38.15 165.89-35.6L165.89-35.6Q165.99-35.1 165.99-34.6L165.99-34.6Q165.99-32.65 164.19-31.1L164.19-31.1Q162.94-30.1 160.84-29.5L160.84-29.5Q159.94-29.25 159.84-29.7L159.84-29.7Q159.74-30.35 161.09-30.5L161.09-30.5Q163.49-30.8 164.04-32.9L164.04-32.9Q164.19-33.45 164.19-33.95ZM165.83-4L165.83-4Q165.83-8.15 169.83-17.9L169.83-17.9 167.23-17.9Q166.98-17.9 166.91-18.18 166.83-18.45 166.96-18.73 167.08-19 167.33-19L167.33-19 170.33-19Q172.13-22.95 173.68-25.6 175.23-28.25 176.53-29.18 177.83-30.1 178.41-30.1 178.98-30.1 179.23-30L179.23-30Q180.38-29.45 180.38-27.73 180.38-26 179.23-23.55 178.08-21.1 176.98-19L176.98-19 179.38-19Q179.63-19 179.71-18.73 179.78-18.45 179.66-18.18 179.53-17.9 179.28-17.9L179.28-17.9 176.38-17.9Q173.63-13.25 169.73-9.65L169.73-9.65 168.58-4.55Q168.43-3.9 168.43-3.28 168.43-2.65 168.78-2 169.13-1.35 169.88-1.35L169.88-1.35Q170.73-1.35 171.78-1.95L171.78-1.95Q174.18-3.75 177.08-9.5L177.08-9.5Q177.28-9.95 177.56-10.05 177.83-10.15 177.88-9.93 177.93-9.7 177.73-9.2L177.73-9.2Q176.08-5.75 175.13-4.3L175.13-4.3Q172.43 0.05 169.38 0.05L169.38 0.05Q167.83 0.05 166.83-1.1 165.83-2.25 165.83-4ZM173.38-19L175.88-19Q179.18-24.9 179.18-27.2L179.18-27.2Q179.18-28.2 178.83-28.2L178.83-28.2Q178.28-28.2 177.16-26.6 176.03-25 173.38-19L173.38-19ZM175.23-17.9L175.23-17.9 172.88-17.9Q172.28-16.5 170.18-11.25L170.18-11.25Q172.88-14.05 175.23-17.9ZM192.28-13.55Q191.38-12.65 189.73-9.47 188.08-6.3 187.76-4.73 187.43-3.15 187.43-2.18 187.43-1.2 188.18-1.2L188.18-1.2Q189.13-1.2 190.53-2.95L190.53-2.95Q192.58-5.5 194.58-9.6L194.58-9.6Q194.78-10.05 195.03-10.1L195.03-10.1Q195.43-10.25 195.43-9.8L195.43-9.8Q195.43-9.55 195.28-9.2L195.28-9.2Q190.68 0.1 187.53 0.1L187.53 0.1Q186.08 0.1 185.18-1.3L185.18-1.3Q184.73-2.05 184.73-3.3 184.73-4.55 185.23-6.35L185.23-6.35Q181.23 0.1 178.33 0.1L178.33 0.1Q177.53 0.1 176.88-0.4L176.88-0.4Q175.38-1.45 175.38-4L175.38-4Q175.38-8.9 179.63-13.95L179.63-13.95Q182.03-16.75 185.53-17.6L185.53-17.6Q186.48-17.85 187.33-17.85L187.33-17.85Q189.63-17.85 191.23-16.25L191.23-16.25Q191.73-15.7 191.53-15.2 191.33-14.7 190.68-14.8L190.68-14.8Q190.13-16.6 188.28-16.6L188.28-16.6Q186.13-16.6 182.98-13.2L182.98-13.2Q181.18-11.2 179.63-8.5L179.63-8.5Q177.68-5.25 177.68-3.3 177.68-1.35 178.93-1.35L178.93-1.35Q181.93-1.35 186.78-10.55L186.78-10.55Q187.73-12.4 188.38-13.08 189.03-13.75 190.03-13.75L190.03-13.75Q190.23-13.75 191.06-13.6 191.88-13.45 192.28-13.55L192.28-13.55ZM187.63 15.8L187.63 15.8Q185.43 15.8 184.23 14.88 183.03 13.95 183.03 12.65 183.03 11.35 183.78 9.7L183.78 9.7Q185.08 7.15 188.48 5.6L188.48 5.6Q191.03 4.4 195.23 3.38 199.43 2.35 200.63 2L200.63 2Q202.43-1.15 204.93-9.25L204.93-9.25Q202.03-4.15 200.08-2.1 198.13-0.05 196.13-0.05L196.13-0.05Q193.43-0.05 192.98-2.3L192.98-2.3Q192.78-2.65 192.88-3.35 192.98-4.05 193-4.35 193.03-4.65 193.33-5.33 193.63-6 193.73-6.3L193.73-6.3Q194.28-7.45 194.68-8.1L194.68-8.1Q193.88-8.1 194.23-8.9L194.23-8.9 195.13-10.65Q196.83-13.9 197.93-16.15L197.93-16.15Q198.43-17.2 199.88-17.2L199.88-17.2 202.93-17.2Q202.83-17.1 202.43-16.8L202.43-16.8Q201.53-16.2 201.08-15.4L201.08-15.4Q199.28-12.3 196.58-6.55L196.58-6.55Q195.48-4.2 195.48-3.1 195.48-2 195.85-1.55 196.23-1.1 196.88-1.1L196.88-1.1Q197.83-1.1 199.53-3.1L199.53-3.1Q203.08-7.25 207.38-16.15L207.38-16.15Q207.93-17.2 209.33-17.2L209.33-17.2 212.03-17.2Q210.73-16.3 209.98-14.93 209.23-13.55 208.35-11.2 207.48-8.85 206.15-4.95 204.83-1.05 204.13 0.9L204.13 0.9Q208.83-0.5 211.33-4.05L211.33-4.05Q212.43-5.6 214.48-9.55L214.48-9.55Q214.83-10.25 215.1-10.1 215.38-9.95 215.38-9.7 215.38-9.45 214.55-7.78 213.73-6.1 212.88-4.67 212.03-3.25 210.68-1.75 209.33-0.25 207.68 0.63 206.03 1.5 203.28 2.5L203.28 2.5Q199.43 9.5 195.53 12.8L195.53 12.8Q191.88 15.8 187.63 15.8ZM184.73 10.85L184.73 10.85Q184.18 11.95 184.18 12.88 184.18 13.8 184.88 14.3 185.58 14.8 186.63 14.8L186.63 14.8Q189.53 14.8 192.83 11.83 196.13 8.85 198.63 5.45L198.63 5.45 199.73 3.6Q191.48 5.75 189.33 6.7L189.33 6.7Q186.13 8.1 184.73 10.85ZM218.78-0.95L218.78-0.95Q219.43-0.85 219.68-0.85L219.68-0.85Q221.68-0.85 223.63-3.2L223.63-3.2Q224.68-4.5 227.38-9.75L227.38-9.75Q227.48-10 227.73-10L227.73-10Q228.18-10.05 228.18-9.65L228.18-9.65Q228.18-9.55 227.95-9.08 227.73-8.6 227.53-8.13 227.33-7.65 226.88-6.75 226.43-5.85 226.1-5.3 225.78-4.75 225.28-3.95 224.78-3.15 224.28-2.7L224.28-2.7 223.23-1.6Q222.38-0.75 221.23-0.4L221.23-0.4Q219.38 0.2 217.63-0.3L217.63-0.3Q216.48 0.2 215.58 0.2L215.58 0.2Q212.03 0.2 211.28-2.6L211.28-2.6Q211.13-3.25 211.13-4.17 211.13-5.1 211.75-5.95 212.38-6.8 213.08-6.85L213.08-6.85Q215.63-11.7 217.43-15.6L217.43-15.6Q219.43-19.85 222.08-19.85L222.08-19.85Q222.78-19.85 223.45-19.53 224.13-19.2 223.95-18.8 223.78-18.4 223.23-18.65 222.68-18.9 222.28-18.9 221.88-18.9 221.58-18.75L221.58-18.75Q219.88-17.95 219.88-15.3L219.88-15.3Q219.88-13.9 220.28-13 220.68-12.1 221.18-11.05L221.18-11.05Q222.33-8.45 222.33-6.8L222.33-6.8Q222.33-5.15 221.28-3.55 220.23-1.95 218.78-0.95ZM217.08-1.3L217.08-1.3Q219.28-3 219.28-6.8L219.28-6.8Q219.28-8.35 218.93-11.05 218.58-13.75 218.58-14.7 218.58-15.65 218.63-16L218.63-16Q214.83-8.4 213.93-6.75L213.93-6.75Q214.98-6.75 214.98-5.25L214.98-5.25Q214.98-2.3 217.08-1.3ZM213.33-2.65L213.33-2.65Q213.33-2.35 213.38-2L213.38-2Q213.78-0.65 215.23-0.65L215.23-0.65Q215.83-0.65 216.23-0.85L216.23-0.85Q214.38-2 214.23-4.6L214.23-4.6Q213.33-3.7 213.33-2.65Z" opacity="1" transform="matrix(1,0,0,1,0,0)" fill="#e83d95" class="wordmark-text-0" data-fill-palette-color="primary" id="text-0"></path></svg></g></svg></g></svg></g></svg></g><g transform="matrix(1,0,0,1,47.860522933945276,0)"><svg viewBox="0 0 128.27895413210945 128.27895413210945" height="128.27895413210945" width="128.27895413210945"><g><svg></svg></g><g id="icon-0"><svg viewBox="0 0 128.27895413210945 128.27895413210945" height="128.27895413210945" width="128.27895413210945"><g><path d="M0 64.139c0-35.423 28.716-64.139 64.139-64.139 35.423 0 64.139 28.716 64.14 64.139 0 35.423-28.716 64.139-64.14 64.14-35.423 0-64.139-28.716-64.139-64.14zM64.139 123.28c32.662 0 59.14-26.478 59.141-59.141 0-32.662-26.478-59.14-59.141-59.14-32.662 0-59.14 26.478-59.14 59.14 0 32.662 26.478 59.14 59.14 59.141z" data-fill-palette-color="accent" fill="#e83d95" stroke="transparent"></path><ellipse rx="63.49808229539418" ry="63.49808229539418" cx="64.13947706605472" cy="64.13947706605472" fill="#e83d95" stroke="transparent" stroke-width="0" fill-opacity="1" data-fill-palette-color="accent"></ellipse></g><g transform="matrix(1,0,0,1,27.45218461627538,27.45212163878041)"><svg viewBox="0 0 73.37458489955868 73.37471085454862" height="73.37471085454862" width="73.37458489955868"><g><svg xmlns="http://www.w3.org/2000/svg" xmlns:xlink="http://www.w3.org/1999/xlink" version="1.1" x="0" y="0" viewBox="1.9993009567260742 1.9994995594024658 60.000396728515625 60.0004997253418" enable-background="new 0 0 64 64" xml:space="preserve" height="73.37471085454862" width="73.37458489955868" class="icon-s-0" data-fill-palette-color="quaternary" id="s-0"><g fill="#ffffff" data-fill-palette-color="quaternary"><g fill="#ffffff" data-fill-palette-color="quaternary"><path d="M3 27.5h7V55c0 0.552 0.448 1 1 1s1-0.448 1-1V26.5c0-0.552-0.448-1-1-1H5.822L32 4.287 58.178 25.5H53c-0.552 0-1 0.448-1 1V55c0 0.552 0.448 1 1 1s1-0.448 1-1V27.5h7c0.423 0 0.801-0.267 0.942-0.666 0.142-0.399 0.016-0.844-0.313-1.111l-29-23.5c-0.366-0.298-0.893-0.298-1.259 0l-29 23.5c-0.329 0.267-0.455 0.711-0.313 1.111C2.199 27.233 2.577 27.5 3 27.5z" fill="#ffffff" data-fill-palette-color="quaternary"></path><path d="M26.879 33.406c0-2.297-1.869-4.167-4.167-4.167s-4.167 1.869-4.167 4.167 1.869 4.167 4.167 4.167S26.879 35.703 26.879 33.406zM20.546 33.406c0-1.195 0.972-2.167 2.167-2.167s2.167 0.972 2.167 2.167-0.972 2.167-2.167 2.167S20.546 34.601 20.546 33.406z" fill="#ffffff" data-fill-palette-color="quaternary"></path><path d="M41.288 37.572c2.297 0 4.167-1.869 4.167-4.167s-1.869-4.167-4.167-4.167-4.167 1.869-4.167 4.167S38.99 37.572 41.288 37.572zM41.288 31.239c1.195 0 2.167 0.972 2.167 2.167s-0.972 2.167-2.167 2.167-2.167-0.972-2.167-2.167S40.093 31.239 41.288 31.239z" fill="#ffffff" data-fill-palette-color="quaternary"></path><path d="M44.288 62c1.31 0 2.375-1.065 2.375-2.375V54.75h2.125c0.552 0 1-0.448 1-1v-6.875c0-4.687-3.813-8.5-8.5-8.5-0.8 0-1.571 0.119-2.306 0.326-1.555-2.3-4.101-3.659-6.982-3.659-2.796 0-5.391 1.391-6.971 3.662-0.738-0.209-1.513-0.329-2.317-0.329-4.687 0-8.5 3.813-8.5 8.5v6.875c0 0.552 0.448 1 1 1h2.125v4.875c0 1.31 1.065 2.375 2.375 2.375s2.375-1.065 2.375-2.375V54.75h1.25v4.875c0 1.31 1.065 2.375 2.375 2.375s2.375-1.065 2.375-2.375V54.75h2.125c0.552 0 1-0.448 1-1v-6.875c0-3.155-1.732-5.909-4.291-7.375 1.223-1.533 3.084-2.458 5.079-2.458 2.061 0 3.895 0.904 5.092 2.45-2.567 1.464-4.305 4.222-4.305 7.383v6.875c0 0.552 0.448 1 1 1h2.125v4.875c0 1.31 1.065 2.375 2.375 2.375s2.375-1.065 2.375-2.375V54.75h1.25v4.875C41.913 60.935 42.978 62 44.288 62zM29.212 46.875v5.875h-1.125v-5c0-0.552-0.448-1-1-1s-1 0.448-1 1v5.875c0 0.022 0.011 0.041 0.013 0.063-0.001 0.022-0.013 0.041-0.013 0.063v5.875c0 0.207-0.168 0.375-0.375 0.375s-0.375-0.168-0.375-0.375V53.75c0-0.552-0.448-1-1-1h-3.25c-0.552 0-1 0.448-1 1v5.875c0 0.207-0.168 0.375-0.375 0.375s-0.375-0.168-0.375-0.375V53.75c0-0.022-0.011-0.041-0.013-0.063 0.001-0.022 0.013-0.041 0.013-0.063V47.75c0-0.552-0.448-1-1-1s-1 0.448-1 1v5h-1.125v-5.875c0-3.584 2.916-6.5 6.5-6.5S29.212 43.291 29.212 46.875zM39.663 52.75c-0.552 0-1 0.448-1 1v5.875c0 0.207-0.168 0.375-0.375 0.375s-0.375-0.168-0.375-0.375V53.75c0-0.022-0.011-0.041-0.013-0.063 0.001-0.022 0.013-0.041 0.013-0.063V47.75c0-0.552-0.448-1-1-1s-1 0.448-1 1v5h-1.125v-5.875c0-3.584 2.916-6.5 6.5-6.5s6.5 2.916 6.5 6.5v5.875h-1.125v-5c0-0.552-0.448-1-1-1s-1 0.448-1 1v5.875c0 0.022 0.011 0.041 0.013 0.063-0.001 0.022-0.013 0.041-0.013 0.063v5.875c0 0.207-0.168 0.375-0.375 0.375s-0.375-0.168-0.375-0.375V53.75c0-0.552-0.448-1-1-1H39.663z" fill="#ffffff" data-fill-palette-color="quaternary"></path><path d="M36.167 30.073c0-2.297-1.869-4.167-4.167-4.167s-4.167 1.869-4.167 4.167 1.869 4.167 4.167 4.167S36.167 32.37 36.167 30.073zM29.833 30.073c0-1.195 0.972-2.167 2.167-2.167s2.167 0.972 2.167 2.167S33.195 32.239 32 32.239 29.833 31.268 29.833 30.073z" fill="#ffffff" data-fill-palette-color="quaternary"></path></g></g></svg></g></svg></g></svg></g></svg></g><g></g></svg></g></svg></g></svg></g><defs></defs></svg><rect width="320" height="360" fill="none" stroke="none" visibility="hidden"></rect></g></svg></g></svg>